<svg width="32" height="32" viewBox="0 0 32 32" fill="none" xmlns="http://www.w3.org/2000/svg">
<path d="M12.4701 8H7.27008C5.9937 8 4.95898 9.03471 4.95898 10.3111V21.8666C4.95898 23.143 5.9937 24.1777 7.27008 24.1777H10.7996M17.2701 24.1777H19.5812H23.6256C24.902 24.1777 25.9367 23.143 25.9367 21.8666V10.3111C25.9367 9.03471 24.902 8 23.6256 8L19.5812 8" stroke="white" stroke-width="2.5" stroke-linecap="round" stroke-linejoin="round"/>
<path d="M12.8881 5.59961L15.1992 7.91071M15.1992 7.91071L12.8881 10.2218M15.1992 7.91071H9.42147" stroke="white" stroke-width="2" stroke-linecap="round" stroke-linejoin="round"/>
<path d="M17.3853 21.7783L15.0742 24.0894M15.0742 24.0894L17.3853 26.4005M15.0742 24.0894H20.852" stroke="white" stroke-width="2" stroke-linecap="round" stroke-linejoin="round"/>
</svg>
