<svg width="40" height="40" viewBox="0 0 40 40" fill="none" xmlns="http://www.w3.org/2000/svg">
<g clip-path="url(#clip0_116_344)">
<path d="M15.5881 10H9.08809C7.49261 10 6.19922 11.2934 6.19922 12.8889V27.3332C6.19922 28.9287 7.49261 30.2221 9.08809 30.2221H13.5M21.5881 30.2221H24.4769H29.5325C31.1279 30.2221 32.4213 28.9287 32.4213 27.3332V12.8889C32.4213 11.2934 31.1279 10 29.5325 10L24.4769 10" stroke="white" stroke-width="3.33" stroke-linecap="round" stroke-linejoin="round"/>
<path d="M16.1111 7L19 9.88887M19 9.88887L16.1111 12.7777M19 9.88887H11.7778" stroke="white" stroke-width="2.16665" stroke-linecap="round" stroke-linejoin="round"/>
<path d="M21.7326 27.2222L18.8438 30.111M18.8438 30.111L21.7326 32.9999M18.8438 30.111H26.0659" stroke="white" stroke-width="2.16665" stroke-linecap="round" stroke-linejoin="round"/>
</g>
<defs>
<clipPath id="clip0_116_344">
<rect width="40" height="40" fill="white"/>
</clipPath>
</defs>
</svg>
