<svg width="40" height="40" viewBox="0 0 40 40" fill="none" xmlns="http://www.w3.org/2000/svg">
<path d="M21.6667 20.0002C21.6667 16.8599 21.3953 13.7829 20.8746 10.7916C20.6704 9.61828 19.3137 9.09417 18.3421 9.78291L14.1994 12.7195C13.636 13.119 12.9624 13.3335 12.2717 13.3335H8.33333C6.49238 13.3335 5 14.8259 5 16.6668V23.3335C5 25.1744 6.49239 26.6668 8.33333 26.6668H12.2717C12.9624 26.6668 13.636 26.8814 14.1994 27.2808L18.3421 30.2174C19.3137 30.9062 20.6704 30.3821 20.8746 29.2087C21.3953 26.2174 21.6667 23.1405 21.6667 20.0002Z" stroke="white" stroke-width="3.33333" stroke-linejoin="round"/>
<path d="M28.334 16.6665L35.0007 23.3332M28.334 23.3332L35.0007 16.6665" stroke="white" stroke-width="3.33333" stroke-linecap="round" stroke-linejoin="round"/>
</svg>
