<svg width="32" height="32" viewBox="0 0 32 32" fill="none" xmlns="http://www.w3.org/2000/svg">
<path d="M17.3333 15.9993C17.3333 13.4871 17.1162 11.0256 16.6997 8.63249C16.5363 7.69384 15.451 7.27455 14.6737 7.82554L11.3595 10.1749C10.9088 10.4944 10.3699 10.666 9.81737 10.666H6.66667C5.19391 10.666 4 11.8599 4 13.3327V18.666C4 20.1388 5.19391 21.3327 6.66667 21.3327H9.81737C10.3699 21.3327 10.9088 21.5043 11.3595 21.8238L14.6737 24.1732C15.451 24.7241 16.5363 24.3049 16.6997 23.3662C17.1162 20.9731 17.3333 18.5116 17.3333 15.9993Z" stroke="white" stroke-width="2.5" stroke-linejoin="round"/>
<path d="M22.668 13.333L28.0013 18.6663M22.668 18.6663L28.0013 13.333" stroke="white" stroke-width="2.5" stroke-linecap="round" stroke-linejoin="round"/>
</svg>
