<svg width="40" height="40" viewBox="0 0 40 40" fill="none" xmlns="http://www.w3.org/2000/svg">
<g clip-path="url(#clip0_110_304)">
<path d="M34.6719 13.3335C34.8896 15.5262 35.001 17.7502 35.001 20.0002C35.001 22.2502 34.8896 24.4741 34.6719 26.6668" stroke="white" stroke-width="3.33333" stroke-linecap="round"/>
<path d="M21.6667 20.0002C21.6667 16.8599 21.3953 13.7829 20.8746 10.7916C20.6704 9.61828 19.3137 9.09417 18.3421 9.78291L14.1994 12.7195C13.636 13.119 12.9624 13.3335 12.2717 13.3335H8.33333C6.49238 13.3335 5 14.8259 5 16.6668V23.3335C5 25.1744 6.49239 26.6668 8.33333 26.6668H12.2717C12.9624 26.6668 13.636 26.8814 14.1994 27.2808L18.3421 30.2174C19.3137 30.9062 20.6704 30.3821 20.8746 29.2087C21.3953 26.2174 21.6667 23.1405 21.6667 20.0002Z" stroke="white" stroke-width="3.33333" stroke-linejoin="round"/>
<path d="M28.1289 15C28.2649 16.6487 28.3343 18.3162 28.3343 20C28.3343 21.6838 28.2649 23.3513 28.1289 25" stroke="white" stroke-width="3.33333" stroke-linecap="round"/>
</g>
<defs>
<clipPath id="clip0_110_304">
<rect width="40" height="40" fill="white"/>
</clipPath>
</defs>
</svg>
