<svg width="32" height="32" viewBox="0 0 32 32" fill="none" xmlns="http://www.w3.org/2000/svg">
<path d="M27.7383 10.667C27.9124 12.4212 28.0016 14.2003 28.0016 16.0003C28.0016 17.8003 27.9124 19.5795 27.7383 21.3337" stroke="white" stroke-width="2.5" stroke-linecap="round"/>
<path d="M17.3333 16.0003C17.3333 13.4881 17.1162 11.0265 16.6997 8.63347C16.5363 7.69482 15.451 7.27553 14.6737 7.82652L11.3595 10.1758C10.9088 10.4954 10.3699 10.667 9.81737 10.667H6.66667C5.19391 10.667 4 11.8609 4 13.3337V18.667C4 20.1398 5.19391 21.3337 6.66667 21.3337H9.81737C10.3699 21.3337 10.9088 21.5053 11.3595 21.8248L14.6737 24.1741C15.451 24.7251 16.5363 24.3058 16.6997 23.3672C17.1162 20.9741 17.3333 18.5126 17.3333 16.0003Z" stroke="white" stroke-width="2.5" stroke-linejoin="round"/>
<path d="M22.5039 12C22.6127 13.3189 22.6682 14.653 22.6682 16C22.6682 17.347 22.6127 18.6811 22.5039 20" stroke="white" stroke-width="2.5" stroke-linecap="round"/>
</svg>
