<svg width="22" height="20" viewBox="0 0 22 20" fill="none" xmlns="http://www.w3.org/2000/svg">
<path d="M21.0349 15.5156L13.3561 1.56873C13.0954 1.09375 12.7119 0.697549 12.2456 0.421576C11.7794 0.145603 11.2475 0 10.7057 0C10.1639 0 9.6321 0.145603 9.16586 0.421576C8.69961 0.697549 8.31609 1.09375 8.05543 1.56873L0.376578 15.5156C0.122302 15.9762 -0.00738837 16.4951 0.000325038 17.0212C0.00803844 17.5472 0.152889 18.0621 0.42056 18.515C0.68823 18.9679 1.06945 19.3431 1.52655 19.6036C1.98365 19.864 2.5008 20.0006 3.02689 20H18.3846C18.9107 20.0006 19.4278 19.864 19.8849 19.6036C20.342 19.3431 20.7233 18.9679 20.9909 18.515C21.2586 18.0621 21.4035 17.5472 21.4112 17.0212C21.4189 16.4951 21.2892 15.9762 21.0349 15.5156ZM10.7057 15.9691C10.5064 15.9691 10.3116 15.91 10.1459 15.7993C9.98017 15.6885 9.851 15.5312 9.77473 15.347C9.69846 15.1629 9.6785 14.9603 9.71739 14.7648C9.75627 14.5693 9.85225 14.3897 9.99318 14.2488C10.1341 14.1079 10.3137 14.0119 10.5092 13.973C10.7046 13.9341 10.9072 13.9541 11.0914 14.0304C11.2755 14.1066 11.4329 14.2358 11.5436 14.4015C11.6544 14.5672 11.7135 14.7621 11.7135 14.9614C11.7135 15.2286 11.6073 15.485 11.4183 15.6739C11.2293 15.8629 10.973 15.9691 10.7057 15.9691ZM11.7135 10.9305C11.7135 11.1977 11.6073 11.4541 11.4183 11.6431C11.2293 11.832 10.973 11.9382 10.7057 11.9382C10.4385 11.9382 10.1822 11.832 9.99318 11.6431C9.80419 11.4541 9.69802 11.1977 9.69802 10.9305V6.89959C9.69802 6.63232 9.80419 6.376 9.99318 6.18702C10.1822 5.99804 10.4385 5.89186 10.7057 5.89186C10.973 5.89186 11.2293 5.99804 11.4183 6.18702C11.6073 6.376 11.7135 6.63232 11.7135 6.89959V10.9305Z" fill="white" fill-opacity="0.8"/>
</svg>
